<svg xmlns="http://www.w3.org/2000/svg" xmlns:xlink="http://www.w3.org/1999/xlink" viewBox="0 0 576.001 432"><pattern x="53.378" y="390.133" width="72" height="28" patternUnits="userSpaceOnUse" id="a" viewBox="176.5 -623 72 28" overflow="visible"><path fill="#FFF" d="M176.5-623h72v28h-72z"/><path fill="none" stroke="#000" stroke-width=".3" stroke-linecap="square" d="M176.5-621h72M176.5-617h72M176.5-613h72M176.5-609h72M176.5-605h72M176.5-601h72M176.5-597h72M146.5-621h15"/></pattern><path fill="#FFF" d="M0 0h576.001v432H0z"/><path fill="url(#a)" stroke="#000" stroke-width="2" d="M53.266 1.157h518.502v388.918H53.266z"/><path fill="#FFF" d="M53.276 49.84l.102 340.234h518.29V260.089s-13.332 2.133-23.993 2.133c-33.315 0-287.091-26.039-362.69-60.969-26.433-12.213-40.631-9.476-70.4-44.273-28.4-33.196-46.642-76.271-61.309-107.14z"/><linearGradient id="b" gradientUnits="userSpaceOnUse" x1="312.472" y1="390.074" x2="312.472" y2="49.84"><stop offset="0" stop-color="#2781c4"/><stop offset="1" stop-color="#2781c4" stop-opacity="0"/></linearGradient><path opacity=".6" fill="url(#b)" stroke="#000" stroke-miterlimit="10" d="M53.276 49.84l.102 340.234h518.29V260.089s-13.332 2.133-23.993 2.133c-33.315 0-269.491-22.839-363.891-60.969-30.679-12.392-45.079-16.36-69.2-44.273C93.74 132.858 75.726 98.35 53.276 49.84z"/><path opacity=".6" fill="none" stroke="#000" stroke-width="1.5" stroke-miterlimit="10" d="M53.276 49.84l.102 340.234h518.29V260.089s-13.332 2.133-23.993 2.133c-33.315 0-269.491-22.839-363.891-60.969-30.679-12.392-45.079-16.36-69.2-44.273C93.74 132.858 75.726 98.35 53.276 49.84z"/><path fill="#FFF" d="M571.847 260.092V1.16H53.446l.009 48.683s178.392 27.093 300.48 86.79c46.105 22.544 72.652 45.964 100.637 73.528 12.462 12.275 21.587 25.863 41.486 37.613 13.072 7.719 19.778 9.276 28.427 11.75 8.214 2.349 16.779 2.816 23.37 2.702.35-.006 1.016-.18 1.563-.429.757-.344 2.194-.842 5.887-.941 2.873-.078 16.542-.764 16.542-.764z"/><linearGradient id="c" gradientUnits="userSpaceOnUse" x1="312.467" y1="262.271" x2="312.467" y2="1.157"><stop offset=".214" stop-color="#9281c4"/><stop offset=".563" stop-color="#9081c4" stop-opacity=".556"/><stop offset=".688" stop-color="#8981c4" stop-opacity=".397"/><stop offset=".778" stop-color="#7e81c4" stop-opacity=".283"/><stop offset=".85" stop-color="#6d81c4" stop-opacity=".191"/><stop offset=".912" stop-color="#5781c4" stop-opacity=".112"/><stop offset=".966" stop-color="#3c81c4" stop-opacity=".043"/><stop offset="1" stop-color="#2781c4" stop-opacity="0"/></linearGradient><path opacity=".6" fill="url(#c)" stroke="#000" stroke-width="1.5" stroke-miterlimit="10" d="M571.668 260.089V1.157H53.266l.009 48.683s178.392 27.093 300.48 86.79c46.105 22.544 72.652 45.964 100.637 73.528 12.462 12.275 27.073 30.225 44.697 38.753 13.665 6.612 15.279 6.853 25.395 10.613 8.008 2.976 16.599 2.813 23.191 2.699.35-.006 1.016-.18 1.563-.429.757-.344 2.194-.842 5.887-.941 2.874-.078 16.543-.764 16.543-.764z"/><path opacity=".6" fill="none" stroke="#000" stroke-width="1.5" stroke-miterlimit="10" d="M571.668 260.089V1.157H53.266l.009 48.683s178.392 27.093 300.48 86.79c46.105 22.544 72.652 45.964 100.637 73.528 12.462 12.275 27.073 30.225 44.697 38.753 13.665 6.612 15.279 6.853 25.395 10.613 8.008 2.976 16.599 2.813 23.191 2.699.35-.006 1.016-.18 1.563-.429.757-.344 2.194-.842 5.887-.941 2.874-.078 16.543-.764 16.543-.764z"/><g><path fill="#FFF" d="M208.018 145.404H312v23.153H208.018z"/></g><g><text transform="rotate(.81 -3048.509 21114.404)"><tspan x="0" y="0" fill="#3B2314" font-family="'Arial-BoldMT'" font-size="21" letter-spacing="-1">V</tspan><tspan x="12.848" y="0" fill="#3B2314" font-family="'Arial-BoldMT'" font-size="21">apor</tspan></text><text transform="translate(149.143 292.143)" fill="#231F20" font-family="'Arial-BoldMT'" font-size="21">Liquid</text><text transform="translate(212.505 164.615)"><tspan x="0" y="0" fill="#2781C4" font-family="'Arial-BoldMT'" font-size="21">L</tspan><tspan x="12.448" y="0" fill="#1B75BB" font-family="'Arial-BoldMT'" font-size="21"> </tspan><tspan x="18.283" y="0" fill="#231F20" font-family="'Arial-BoldMT'" font-size="21">+ </tspan><tspan x="36.381" y="0" fill="#7F3F97" font-family="'Arial-BoldMT'" font-size="21" letter-spacing="-1">V</tspan><tspan x="49.229" y="0" fill="#7F3F97" font-family="'Arial-BoldMT'" font-size="21">apor</tspan></text></g><g><text transform="rotate(-90 101.854 83.04)" fill="#231F20" font-family="'Arial-BoldMT'" font-size="18">T (°C)</text><text transform="translate(23.481 10.69)" fill="#231F20" font-family="'Arial-BoldMT'" font-size="14">105</text><text transform="translate(23.481 55.022)" fill="#231F20" font-family="'Arial-BoldMT'" font-size="14">100</text><text transform="translate(31.267 104.127)" fill="#231F20" font-family="'Arial-BoldMT'" font-size="14">95</text><text transform="translate(31.267 298.204)" fill="#231F20" font-family="'Arial-BoldMT'" font-size="14">75</text><text transform="translate(31.267 394.594)" fill="#231F20" font-family="'Arial-BoldMT'" font-size="14">65</text><text transform="translate(244.666 422.499)"><tspan x="0" y="0" fill="#231F20" font-family="'Arial-BoldMT'" font-size="18">W</tspan><tspan x="16.664" y="0" fill="#231F20" font-family="'Arial-BoldMT'" font-size="18">eight %</tspan><tspan x="80.666" y="0" fill="#231F20" font-family="'Arial-BoldMT'" font-size="18"> </tspan><tspan x="84.999" y="0" fill="#231F20" font-family="'Arial-BoldMT'" font-size="18">Alcohol</tspan></text><text transform="translate(149.143 404.97)" fill="#231F20" font-family="'Arial-BoldMT'" font-size="14">20</text><text transform="translate(252.368 404.97)" fill="#231F20" font-family="'Arial-BoldMT'" font-size="14">40</text><text transform="translate(356.947 404.97)" fill="#231F20" font-family="'Arial-BoldMT'" font-size="14">60</text><text transform="translate(459.728 404.97)" fill="#231F20" font-family="'Arial-BoldMT'" font-size="14">80</text><text transform="translate(550.46 404.97)" fill="#231F20" font-family="'Arial-BoldMT'" font-size="14">100</text><text transform="translate(48.888 404.97)" fill="#231F20" font-family="'Arial-BoldMT'" font-size="14">0</text><text transform="translate(500 421.093)" fill="#3B2314" font-family="'Arial-BoldMT'" font-size="14">CH</text><text transform="matrix(.8 0 0 .8 520.222 423.053)" fill="#3B2314" font-family="'Arial-BoldMT'" font-size="14">3</text><text transform="translate(526.45 421.093)" fill="#3B2314" font-family="'Arial-BoldMT'" font-size="14">CH</text><text transform="matrix(.8 0 0 .8 546.67 423.053)" fill="#3B2314" font-family="'Arial-BoldMT'" font-size="14">2</text><text transform="translate(552.9 421.093)" fill="#3B2314" font-family="'Arial-BoldMT'" font-size="14">OH</text><text transform="translate(48.888 421.093)" fill="#3B2314" font-family="'Arial-BoldMT'" font-size="14">H</text><text transform="matrix(.8 0 0 .8 58.998 423.053)" fill="#3B2314" font-family="'Arial-BoldMT'" font-size="14">2</text><text transform="translate(65.227 421.093)" fill="#3B2314" font-family="'Arial-BoldMT'" font-size="14">O</text><path fill="#231F20" stroke="#231F20" stroke-width="1.5" stroke-miterlimit="10" d="M53.266 389.014v4.461"/><text transform="translate(31.267 201.254)" fill="#231F20" font-family="'Arial-BoldMT'" font-size="14">85</text><text transform="translate(12.592 266.435)" fill="#231F20" font-family="'Arial-BoldMT'" font-size="14">78.17</text><text transform="translate(534.334 246.661)" fill="#231F20" font-family="'Arial-BoldMT'" font-size="14">78.3</text><text transform="translate(534.062 383.303)" fill="#231F20" font-family="'Arial-BoldMT'" font-size="14">95.6</text></g><g><path fill="#231F20" stroke="#231F20" stroke-width="1.5" stroke-miterlimit="10" d="M157.001 389.515v4.461M208.854 389.014v4.461M105.061 390.133v4.461M260.647 389.672v4.461M312.646 389.014v4.461M364.388 389.014v4.461M416.183 389.014v4.461M467.745 389.02l.231 4.455M519.976 389.014v4.461M571.768 389.594v4.461M53.378 487.385h-3.574M53.266 390.074h-3.574M52.267 196.354h-3.574M53.053 98.35h-3.574M52.267 1.876h-3.574M52.676 292.827h-3.573M52.675 260.721h-3.573M52.89-96.128h-3.574"/><path id="d" fill="none" d="M531.334 285.878v4.461"/><text><textPath xlink:href="#d" startOffset="98.438%"> </textPath></text><path fill="#231F20" stroke="#231F20" stroke-width="1.5" stroke-miterlimit="10" d="M548.46 386.539V391"/><path fill="none" stroke="#000" stroke-linejoin="round" stroke-miterlimit="10" d="M49.278 49.818h3.998"/></g><g><path fill="none" stroke="#000" stroke-width="2" d="M53.266 1.157h518.502v388.918H53.266z"/><path fill="none" stroke="#231F20" stroke-miterlimit="10" d="M567.445 255.934L562.712 251"/><path fill="#231F20" d="M567.882 253.18l-.95 2.219-2.257.857 5.249 2.263z"/></g></svg>